<svg width="120" height="17" viewBox="0 0 120 17" fill="none" xmlns="http://www.w3.org/2000/svg">
<path d="M13.8882 2.1885C13.4823 1.8212 12.8636 1.33791 12.0324 0.931941C11.6264 0.728958 7.57642 -1.18488 3.82606 1.14459C0.86831 2.97144 0.230363 6.10317 0.133705 6.59613C0.0370461 7.12776 -0.552571 10.5785 1.84456 13.3526C3.7584 15.566 6.32952 15.9044 7.14145 16.001C7.95339 16.0977 10.1765 16.32 12.2837 14.9571C13.1633 14.3868 13.7529 13.7199 14.1009 13.2462C13.4243 12.4826 12.7477 11.719 12.071 10.9554C11.8197 11.2454 11.4041 11.6417 10.8241 11.9993C10.4182 12.241 9.16162 12.9756 7.49909 12.7243C7.17045 12.676 6.04921 12.4923 5.05363 11.5837C3.30411 9.97918 3.57475 7.61105 3.59408 7.4274C3.62308 7.21475 3.98072 4.76929 6.1362 3.73504C7.97272 2.86511 10.3215 3.38707 11.8487 5.08826C12.4577 4.34399 13.0956 3.59972 13.7722 2.85545C13.8786 2.73946 13.9849 2.6138 14.0912 2.49781" fill="white"/>
<path d="M25.729 6.31578C24.5788 4.38261 23.4285 2.45911 22.2783 0.525936C20.9251 0.467941 19.5719 0.40028 18.209 0.342285C20.1808 3.44502 22.1527 6.54776 24.1245 9.64084C24.1245 11.6707 24.1245 13.6908 24.1245 15.7207C25.2747 15.711 26.425 15.7013 27.5752 15.6917C27.5752 13.6618 27.5752 11.632 27.5752 9.60218C29.5277 6.52843 31.4802 3.45469 33.423 0.380948C32.1472 0.380948 30.8616 0.380948 29.5857 0.380948C28.3968 2.40111 27.1982 4.42128 26.0093 6.44144C25.961 6.44144 25.903 6.44144 25.8547 6.44144C25.8257 6.42211 25.8063 6.39311 25.7774 6.37378" fill="white"/>
<path d="M53.5371 0.458296C54.2814 1.49254 55.0256 2.52679 55.7699 3.56104C57.9834 3.56104 60.2066 3.56104 62.42 3.56104C62.5844 3.59003 62.8163 3.64803 63.0676 3.79302C63.6959 4.14099 63.9472 4.71127 64.0246 4.89492C64.0922 5.06891 64.3725 5.77452 64.0246 6.54779C63.6766 7.30172 62.9806 7.5627 62.8453 7.61103C62.7583 7.64003 62.681 7.66903 62.594 7.69802C61.2698 7.70769 59.9552 7.71735 58.631 7.72702C60.4675 10.4141 62.304 13.1109 64.1406 15.798C65.5034 15.798 66.8567 15.7883 68.2195 15.7883C66.9727 13.9615 65.7258 12.125 64.4692 10.2981C64.5079 10.2885 64.5562 10.2691 64.6142 10.2498C65.8031 9.85351 66.4797 8.94492 66.7117 8.64528C66.8373 8.47129 67.195 7.959 67.4366 7.20506C67.7459 6.22881 67.6879 5.40721 67.6493 4.94325C67.6203 4.57595 67.5913 4.18932 67.4366 3.72536C67.3593 3.49338 66.9533 2.30448 65.7741 1.47321C65.1748 1.04791 64.5852 0.873928 63.9859 0.690277C63.5509 0.564621 63.1836 0.487294 62.913 0.438965" fill="white"/>
<path d="M87.6777 0.429488C88.422 1.46373 89.1663 2.49798 89.9105 3.53223C92.124 3.53223 94.3472 3.53223 96.5607 3.53223C96.725 3.56123 96.957 3.61922 97.2083 3.76421C97.8366 4.11218 98.0879 4.68247 98.1652 4.86612C98.2328 5.0401 98.5132 5.74571 98.1652 6.51898C97.8172 7.27291 97.1213 7.53389 96.986 7.58222C96.899 7.61122 96.8216 7.64022 96.7346 7.66922C95.4104 7.67888 94.0959 7.68855 92.7716 7.69821C94.6082 10.3853 96.4447 13.0821 98.2812 15.7692C99.6441 15.7692 100.997 15.7595 102.36 15.7595C101.113 13.9327 99.8664 12.0962 98.6098 10.2693C98.6485 10.2597 98.6968 10.2403 98.7548 10.221C99.9437 9.8247 100.62 8.91611 100.852 8.61647C100.978 8.44248 101.336 7.93019 101.577 7.17626C101.887 6.2 101.829 5.37841 101.79 4.91445C101.761 4.54714 101.732 4.16051 101.577 3.69655C101.5 3.46457 101.094 2.27567 99.9147 1.4444C99.3154 1.0191 98.7258 0.84512 98.1265 0.661468C97.6916 0.535812 97.3243 0.458486 97.0536 0.410156" fill="white"/>
<path d="M112.305 6.38366C111.155 4.45048 110.005 2.52698 108.854 0.593808C107.501 0.535813 106.148 0.468151 104.785 0.410156C106.757 3.5129 108.729 6.61564 110.701 9.70871C110.701 11.7385 110.701 13.7587 110.701 15.7885C111.851 15.7789 113.001 15.7692 114.151 15.7595C114.151 13.7297 114.151 11.6999 114.151 9.67005C116.104 6.5963 118.056 3.52256 119.999 0.44882C118.723 0.44882 117.438 0.44882 116.162 0.44882C114.973 2.46898 113.774 4.48915 112.586 6.50931C112.537 6.50931 112.479 6.50931 112.431 6.50931C112.402 6.48998 112.383 6.46098 112.354 6.44165" fill="white"/>
<path d="M81.4709 0.400391C80.427 0.400391 79.3831 0.410056 78.3295 0.410056C76.1644 5.54263 73.9992 10.6655 71.8438 15.7981C72.9843 15.7884 74.1249 15.7788 75.2655 15.7691C75.7681 14.6285 76.261 13.4783 76.7637 12.3377C78.8418 12.3281 80.9103 12.3184 82.9885 12.3184C83.5104 13.4783 84.0324 14.6382 84.5544 15.7981C85.7336 15.7981 86.9128 15.7884 88.1017 15.7884C85.8882 10.6559 83.6748 5.53296 81.4709 0.400391ZM77.9912 9.18666C78.6292 7.61112 79.2671 6.02592 79.9051 4.45039C80.5913 6.01625 81.2776 7.59179 81.9542 9.15766C80.6397 9.16732 79.3155 9.17699 77.9912 9.18666Z" fill="white"/>
<path d="M51.5464 11.4869C51.5367 11.0327 51.527 10.443 51.2081 9.80509C50.7441 8.88683 49.9322 8.41321 49.4102 8.11356C49.1492 7.95891 48.9172 7.85259 48.7529 7.78493C48.8303 7.74626 48.9462 7.6786 49.0719 7.59161C49.2749 7.45629 49.8548 7.06965 50.2511 6.39304C50.6474 5.70677 50.6764 5.04949 50.6861 4.67252C50.6958 4.28589 50.7151 3.11632 49.8838 2.04341C48.8786 0.757849 47.3997 0.583864 47.1291 0.554866C44.2293 0.525869 41.3392 0.506537 38.4395 0.477539C38.4491 5.58111 38.4685 10.6847 38.4781 15.7883L38.6328 15.7979C41.5809 15.7689 44.5289 15.7496 47.4674 15.7206C48.2406 15.6143 48.8399 15.3823 49.2169 15.189C49.5455 15.0247 49.9805 14.8023 50.4348 14.348C50.9471 13.8358 51.1791 13.3235 51.2371 13.2075C51.556 12.5019 51.556 11.8832 51.5464 11.4869ZM41.7162 3.11632L46.0948 3.15498C46.1238 3.15498 46.1625 3.15498 46.2011 3.16465C46.7424 3.25164 47.332 3.91858 47.332 4.67252C47.332 5.57145 46.5201 6.07407 46.4138 6.13206C46.3461 6.17073 46.2881 6.19973 46.2398 6.21906C44.7416 6.23839 43.2434 6.25772 41.7548 6.27705C41.7355 5.22347 41.7258 4.1699 41.7162 3.11632ZM46.9744 12.5695C46.8971 12.6082 46.8294 12.6372 46.7811 12.6565C45.1282 12.6758 43.4657 12.6952 41.8128 12.7145C41.8032 11.6513 41.7935 10.5784 41.7742 9.51511L46.6458 9.49578C46.6748 9.49578 46.7134 9.49578 46.7618 9.50545C47.3417 9.60211 47.999 10.2691 47.9893 11.0906C47.97 12.0282 47.0807 12.5212 46.9744 12.5695Z" fill="white"/>
</svg>
